<?xml version="1.0" encoding="utf-8"?>
<!-- Generator: Adobe Illustrator 24.0.1, SVG Export Plug-In . SVG Version: 6.00 Build 0)  -->
<svg version="1.1" id="Layer_1" xmlns="http://www.w3.org/2000/svg" xmlns:xlink="http://www.w3.org/1999/xlink" x="0px" y="0px"
	 viewBox="0 0 126 105" style="enable-background:new 0 0 126 105;" xml:space="preserve">
<style type="text/css">
	.st0{fill:#FFFFFF;}
</style>
<g>
	<path class="st0" d="M71.42,104.05c-4.16,0-8.33,0-12.49,0c-0.13-0.04-0.26-0.09-0.4-0.12c-2.45-0.51-4.94-0.88-7.35-1.54
		c-6.18-1.68-11.82-4.5-16.92-8.37c-6.99-5.3-12.54-11.8-16.32-19.76c-2.35-4.94-3.86-10.12-4.54-15.54
		c-0.15-1.21-0.27-2.42-0.4-3.62c0-1.91,0-3.83,0-5.74c0.04-0.21,0.09-0.42,0.12-0.63c0.4-2.76,0.65-5.55,1.21-8.28
		c1.05-5.11,3.02-9.91,5.65-14.42c2.33-4,5.16-7.62,8.43-10.92c5.13-5.18,10.96-9.29,17.79-11.9c5.34-2.04,10.82-3.27,16.57-3.09
		c1.84,0.06,3.69-0.05,5.52,0.02c1.98,0.07,3.96,0.16,5.92,0.42c5.13,0.7,10,2.31,14.62,4.63c5.35,2.68,10.05,6.25,14.22,10.53
		c3.86,3.97,7.02,8.45,9.4,13.45c3.09,6.52,4.73,13.4,5.01,20.61c0.22,5.84-0.38,11.59-1.97,17.23c-1.67,5.91-4.27,11.36-8.03,16.21
		C102.69,89.4,96.9,94.4,89.99,98.07c-4.7,2.49-9.62,4.31-14.86,5.29C73.9,103.59,72.66,103.82,71.42,104.05z M63.93,94.74
		c7.85-0.1,13.49-1.36,18.84-3.78c6.26-2.83,11.62-6.87,16.04-12.14c3.03-3.61,5.37-7.62,6.89-12.07
		c2.45-7.17,2.93-14.52,1.75-21.99c-0.7-4.43-2.12-8.62-4.19-12.59c-2.2-4.21-5.06-7.92-8.51-11.19
		c-5.59-5.29-12.05-8.96-19.59-10.65C70.11,9.2,64.99,9.03,59.85,9.61c-5.44,0.61-10.55,2.22-15.31,4.92
		c-5.15,2.91-9.43,6.84-13.03,11.5c-4.45,5.75-7.37,12.2-8.53,19.4c-0.81,5.03-0.73,10.05,0.32,15.03
		c1.49,7.09,4.64,13.36,9.31,18.88c4.43,5.23,9.77,9.26,16.06,11.97C54.15,93.67,59.9,94.81,63.93,94.74z"/>
	<path class="st0" d="M90.22,33.87c-3.55,2.21-7.06,4.39-10.6,6.59c-3.79-3.98-8.42-5.95-13.89-5.65
		c-4.78,0.26-8.81,2.26-11.97,5.85c-6.11,6.94-5.64,17.18,0.63,23.57c6.49,6.62,17.84,7.36,25.21-0.49
		c3.52,2.17,7.05,4.35,10.67,6.59c-2.52,3.23-5.51,5.84-9.06,7.8c-5.73,3.16-11.86,4.36-18.34,3.49
		c-14.04-1.88-23.9-12.86-25.6-25.35c-2-14.64,6.61-27.54,19.23-32.14C69.39,19.42,82.86,24.18,90.22,33.87z"/>
</g>
</svg>
