<?xml version="1.0" encoding="utf-8"?>
<!-- Generator: Adobe Illustrator 24.0.1, SVG Export Plug-In . SVG Version: 6.00 Build 0)  -->
<svg version="1.1" id="Layer_1" xmlns="http://www.w3.org/2000/svg" xmlns:xlink="http://www.w3.org/1999/xlink" x="0px" y="0px"
	 viewBox="0 0 126 105" style="enable-background:new 0 0 126 105;" xml:space="preserve">
<style type="text/css">
	.st0{fill:#00A99D;}
</style>
<g>
	<path class="st0" d="M96.06,78.77c-22.01,0-43.88,0-65.9,0c8.65-8.85,17.23-17.62,25.85-26.45c2.47,2.05,4.92,4.07,7.43,6.14
		c2.4-2.05,4.79-4.09,7.24-6.18C79.13,61.09,87.55,69.88,96.06,78.77z"/>
	<path class="st0" d="M96.94,25.16c-11.21,8.98-22.34,17.89-33.5,26.82c-11.15-8.93-22.27-17.83-33.5-26.82
		C52.31,25.16,74.56,25.16,96.94,25.16z"/>
	<path class="st0" d="M27.84,75.08c-0.08-0.67-0.2-1.16-0.2-1.66c-0.01-14.62-0.01-29.25-0.01-43.87c0-0.08,0.01-0.15,0.02-0.37
		c8.34,6.81,16.6,13.56,24.93,20.35C44.36,58.03,36.16,66.49,27.84,75.08z"/>
	<path class="st0" d="M99,75.03C90.77,66.48,82.61,58,74.39,49.46c8.28-6.72,16.52-13.41,24.83-20.16c0,14.97,0,29.84-0.01,44.71
		C99.21,74.31,99.09,74.61,99,75.03z"/>
</g>
</svg>
