<?xml version="1.0" encoding="utf-8"?>
<!-- Generator: Adobe Illustrator 24.0.1, SVG Export Plug-In . SVG Version: 6.00 Build 0)  -->
<svg version="1.1" id="Layer_1" xmlns="http://www.w3.org/2000/svg" xmlns:xlink="http://www.w3.org/1999/xlink" x="0px" y="0px"
	 viewBox="0 0 126 105" style="enable-background:new 0 0 126 105;" xml:space="preserve">
<style type="text/css">
	.st0{fill:#FFFFFF;}
</style>
<g>
	<path class="st0" d="M102.67,52.7c0,7.38,0.02,14.76-0.01,22.14c-0.03,8.27-6.18,15.5-14.34,16.91c-0.94,0.16-1.9,0.27-2.85,0.28
		c-14.8,0.02-29.6,0.04-44.4,0c-8.26-0.02-15.48-6.2-16.88-14.34c-0.17-0.97-0.28-1.97-0.28-2.96c-0.02-14.75-0.03-29.5,0-44.25
		c0.02-8.27,6.19-15.51,14.34-16.91c0.95-0.16,1.93-0.28,2.89-0.28c14.8-0.02,29.6-0.04,44.4,0c8.21,0.02,15.5,6.27,16.83,14.34
		c0.18,1.12,0.28,2.26,0.28,3.4C102.68,38.25,102.67,45.47,102.67,52.7C102.67,52.7,102.67,52.7,102.67,52.7z M92.92,52.63
		c0.02,0,0.05,0,0.07,0c0-2.74,0.02-5.48-0.01-8.22c-0.03-2.41-0.06-4.82-0.43-7.22c-0.36-2.37-1.07-4.63-2.36-6.66
		c-2.69-4.24-6.65-6.47-11.53-7.22c-2.33-0.36-4.68-0.41-7.03-0.43c-4.84-0.04-9.67-0.04-14.51-0.03c-2.92,0.01-5.84,0.03-8.75,0.38
		c-2.28,0.28-4.47,0.89-6.48,2.01c-4.52,2.53-6.99,6.49-7.89,11.51c-0.39,2.19-0.48,4.41-0.48,6.63
		c-0.02,6.77,0.01,13.55,0.06,20.32c0.02,2.06,0.21,4.11,0.7,6.12c1.07,4.34,3.44,7.74,7.32,10c2.77,1.62,5.84,2.25,9.01,2.37
		c2.77,0.11,5.55,0.15,8.32,0.15c5.03,0.01,10.06-0.02,15.09-0.07c2.06-0.02,4.12-0.16,6.13-0.65c5.95-1.43,9.93-5.01,11.77-10.88
		c0.74-2.37,0.94-4.83,0.96-7.29C92.95,59.86,92.92,56.25,92.92,52.63z"/>
	<path class="st0" d="M38.76,52.59c0.04-3.39,0.06-6.79,0.13-10.18c0.04-1.95,0.11-3.9,0.6-5.81c1.14-4.46,4.04-7.07,8.52-7.88
		c1.59-0.29,3.22-0.41,4.84-0.43c4.6-0.08,9.21-0.1,13.82-0.1c2.84,0,5.67,0.08,8.51,0.15c1.81,0.05,3.6,0.27,5.32,0.89
		c3.42,1.24,5.52,3.67,6.46,7.16c0.36,1.35,0.55,2.74,0.57,4.13c0.08,4.69,0.14,9.38,0.16,14.07c0.01,2.75-0.03,5.5-0.09,8.25
		c-0.04,1.96-0.11,3.93-0.61,5.84c-1.15,4.43-4.03,7.02-8.47,7.84c-1.6,0.29-3.25,0.41-4.88,0.44c-4.62,0.08-9.24,0.1-13.85,0.1
		c-2.84,0-5.67-0.08-8.51-0.15c-1.8-0.05-3.58-0.28-5.28-0.89c-3.43-1.24-5.54-3.69-6.47-7.19c-0.52-1.96-0.6-3.97-0.64-5.98
		C38.83,59.42,38.8,56,38.76,52.59z M78.53,52.63c0-8.45-6.82-15.27-15.27-15.28c-8.44-0.01-15.29,6.82-15.29,15.26
		c0,8.47,6.83,15.31,15.29,15.3C71.71,67.9,78.53,61.07,78.53,52.63z M82.69,36.77c0.01-1.98-1.56-3.56-3.53-3.58
		c-1.99-0.01-3.6,1.58-3.6,3.56c0,1.96,1.61,3.56,3.56,3.57C81.08,40.33,82.68,38.73,82.69,36.77z"/>
	<path class="st0" d="M73.21,52.65c0.03-5.43-4.42-9.95-9.83-9.98c-5.53-0.03-10.06,4.38-10.09,9.84
		c-0.03,5.53,4.38,10.04,9.85,10.07C68.69,62.62,73.18,58.2,73.21,52.65z"/>
	<path class="st0" d="M73.21,52.65c-0.03,5.55-4.52,9.97-10.07,9.93c-5.47-0.04-9.88-4.54-9.85-10.07
		c0.03-5.46,4.55-9.87,10.09-9.84C68.79,42.7,73.24,47.22,73.21,52.65z"/>
</g>
</svg>
