<?xml version="1.0" encoding="utf-8"?>
<!-- Generator: Adobe Illustrator 24.0.1, SVG Export Plug-In . SVG Version: 6.00 Build 0)  -->
<svg version="1.1" id="Layer_1" xmlns="http://www.w3.org/2000/svg" xmlns:xlink="http://www.w3.org/1999/xlink" x="0px" y="0px"
	 viewBox="0 0 126 105" style="enable-background:new 0 0 126 105;" xml:space="preserve">
<style type="text/css">
	.st0{fill:#FFFFFF;}
</style>
<g>
	<path class="st0" d="M20.1,1c28.46,0,56.91,0,85.37,0c0.61,0.13,1.23,0.24,1.84,0.4c4.49,1.2,7.17,4.71,7.18,9.53
		c0.02,27.92,0.01,55.83-0.01,83.75c0,2.19-0.53,4.25-1.9,6.05c-2.1,2.76-4.98,3.76-8.31,3.76c-27.04,0-54.08,0-81.12-0.01
		c-1.24,0-2.49-0.08-3.73-0.17c-4.03-0.28-7.25-3.37-8.13-7.3c-0.11-0.51-0.2-1.03-0.31-1.55c0-28.46,0-56.91,0-85.37
		c0.09-0.28,0.23-0.55,0.26-0.84c0.35-3.84,3.66-7.41,7.41-7.98C19.15,1.21,19.62,1.1,20.1,1z M67.92,45.42c0-1.38,0.01-2.45,0-3.52
		c-0.01-1.87-1.08-2.94-2.94-2.95c-3.78-0.01-7.55-0.01-11.33,0c-1.97,0-3.06,1.07-3.06,3.05c-0.01,16.05,0,32.1,0,48.14
		c0,2.06,1.12,3.16,3.2,3.16c3.64,0.01,7.28,0.01,10.92,0c2.16,0,3.21-1.06,3.21-3.23c0-8.19,0-16.39,0-24.58
		c0-2.63,0.57-5.13,1.7-7.51c1.66-3.48,4.7-5.23,8.6-4.92c3.65,0.29,6.21,2.41,7.14,6.22c0.46,1.88,0.74,3.84,0.76,5.78
		c0.08,8.36,0.03,16.72,0.03,25.08c0,2.14,1.01,3.15,3.15,3.15c3.78,0.01,7.55,0.01,11.33,0c2.12,0,3.24-1.09,3.24-3.24
		c0-8.66,0.03-17.33-0.06-25.99c-0.04-4-0.27-8-1.32-11.9c-1.75-6.55-5.31-11.45-12.19-13.26c-4.11-1.09-8.26-1.05-12.4-0.18
		C73.82,39.59,70.52,41.71,67.92,45.42z M25.89,66.15c0,7.92,0,15.84,0,23.76c0,2.31,1.08,3.4,3.39,3.4c3.37,0.01,6.74,0,10.11,0
		c2.81,0,3.83-1.02,3.83-3.84c0-10.01,0-20.02,0-30.03c0-5.7,0.01-11.39,0-17.09c0-2.31-1.12-3.41-3.4-3.41c-3.54,0-7.08,0-10.62,0
		c-2.27,0-3.31,1.06-3.31,3.34C25.89,50.25,25.89,58.2,25.89,66.15z M45.67,23.44c0-6.15-5.06-11.19-11.2-11.17
		c-6.07,0.02-11.12,5.09-11.12,11.18c0,6.07,5.06,11.16,11.13,11.18C40.61,34.65,45.67,29.59,45.67,23.44z"/>
	<path class="st0" d="M11,95.48c0.1,0.52,0.19,1.04,0.31,1.55c0.88,3.93,4.1,7.02,8.13,7.3c1.24,0.09,2.48,0.17,3.73,0.17
		c27.04,0.01,54.08,0.01,81.12,0.01c3.33,0,6.21-1.01,8.31-3.76c1.37-1.8,1.9-3.87,1.9-6.05c0.02-27.92,0.02-55.83,0.01-83.75
		c0-4.83-2.69-8.33-7.18-9.53c-0.6-0.16-1.22-0.27-1.84-0.4c3.1,0,6.2,0,9.31,0c0,34.59,0,69.19,0,103.78c-34.59,0-69.19,0-103.78,0
		C11,101.68,11,98.58,11,95.48z"/>
	<path class="st0" d="M20.1,1c-0.48,0.1-0.96,0.21-1.44,0.29c-3.75,0.56-7.06,4.13-7.41,7.98C11.23,9.55,11.09,9.82,11,10.1
		c0-3.03,0-6.07,0-9.1C14.03,1,17.07,1,20.1,1z"/>
</g>
</svg>
